<svg xmlns="http://www.w3.org/2000/svg" xmlns:xlink="http://www.w3.org/1999/xlink" width="500" zoomAndPan="magnify" viewBox="0 0 375 374.999991" height="500" preserveAspectRatio="xMidYMid meet" version="1.0"><rect x="-37.5" width="450" fill="#ffffff" y="-37.499999" height="449.999989" fill-opacity="1"/><rect x="-37.5" width="450" fill="#ffffff" y="-37.499999" height="449.999989" fill-opacity="1"/><rect x="-37.5" width="450" fill="#ffffff" y="-37.499999" height="449.999989" fill-opacity="1"/><path stroke-linecap="butt" transform="matrix(0.75, 0, 0, 0.75, 40.235345, 158.46387)" fill="none" stroke-linejoin="miter" d="M 49.738293 23.324216 C 51.49871 10.194007 53.920585 1.74609 63.154961 1.74609 L 64.222669 1.74609 C 71.53517 1.74609 72.201836 7.55859 71.040378 16.324216 L 89.509129 16.324216 L 90.009129 12.522132 C 92.337254 -5.759119 83.290379 -14.212245 64.816419 -14.212245 C 44.399751 -14.212245 34.472667 -2.930994 30.983084 23.324216 L 30.483084 27.006508 C 26.9935 53.266926 36.134126 64.355469 56.556002 64.355469 C 73.576837 64.355469 84.545587 57.25651 86.707046 37.621092 L 86.800796 36.740884 L 68.306003 36.740884 C 67.451836 43.553384 64.628919 48.423176 58.097669 48.423176 L 57.02996 48.423176 C 48.290377 48.423176 47.509126 40.256509 49.264335 27.006508 Z M 122.884131 21.001299 L 125.306007 3.095048 L 133.753924 3.095048 C 137.363299 3.095048 141.165383 4.261715 140.472674 11.454424 L 140.378924 12.522132 C 139.691424 19.527341 134.941424 21.001299 131.332049 21.001299 Z M 120.842465 36.928384 L 125.993507 36.928384 L 132.498715 63.001302 L 152.441425 63.001302 L 144.368508 34.412758 C 151.467467 31.490883 157.311217 25.365883 158.946634 13.022132 L 159.253925 10.886715 C 162.056009 -10.128911 147.858091 -12.858078 135.040382 -12.858078 L 108.873714 -12.858078 L 98.94663 63.001302 L 117.420589 63.001302 Z M 192.024761 -12.858078 L 164.009134 63.001302 L 183.858094 63.001302 L 188.821636 47.636718 L 204.56122 47.636718 L 205.722679 63.001302 L 225.477888 63.001302 L 217.311221 -12.858078 Z M 201.852887 8.532548 L 203.493512 31.683592 L 194.160178 31.683592 Z M 277.894558 63.001302 L 305.910185 -12.858078 L 286.061225 -12.858078 L 267.967474 41.605467 L 264.170599 -12.858078 L 244.441431 -12.858078 L 252.608098 63.001302 Z M 318.936228 -12.858078 L 309.009144 63.001302 L 356.660188 63.001302 L 358.701855 47.042968 L 329.52477 47.042968 L 331.472687 32.277342 L 355.785188 32.277342 L 357.920605 16.324216 L 333.608104 16.324216 L 335.363312 3.095048 L 364.545606 3.095048 L 366.587272 -12.858078 Z M 318.936228 -12.858078 " stroke="#000000" stroke-width="2.79613" stroke-opacity="1" stroke-miterlimit="4"/></svg>