<?xml version="1.0" standalone="no"?>
<!DOCTYPE svg PUBLIC "-//W3C//DTD SVG 20010904//EN"
 "http://www.w3.org/TR/2001/REC-SVG-20010904/DTD/svg10.dtd">
<svg version="1.0" xmlns="http://www.w3.org/2000/svg"
 width="364.000000pt" height="110.000000pt" viewBox="0 0 364.000000 110.000000"
 preserveAspectRatio="xMidYMid meet">

<g transform="translate(0.000000,110.000000) scale(0.100000,-0.100000)"
fill="#000000" stroke="none">
<path d="M360 911 c-137 -49 -219 -224 -223 -481 -3 -192 58 -277 214 -299
209 -29 340 63 374 262 l6 37 -104 0 -104 0 -12 -41 c-17 -56 -43 -79 -89 -79
-61 0 -77 25 -75 119 3 158 37 282 83 306 75 39 124 5 119 -82 l-3 -48 101 -3
c115 -3 113 -6 113 99 0 97 -32 160 -103 199 -59 33 -218 39 -297 11z m270
-24 c79 -34 120 -119 104 -216 l-7 -41 -78 0 -79 0 0 50 c0 74 -28 97 -110 90
-65 -5 -100 -61 -125 -204 -30 -176 -15 -257 51 -275 68 -19 123 10 144 75
l12 34 80 0 80 0 -7 -32 c-13 -63 -52 -135 -88 -162 -68 -52 -190 -71 -294
-44 -59 14 -127 78 -142 133 -23 84 -7 291 32 402 52 152 151 218 312 209 44
-2 96 -11 115 -19z"/>
<path d="M876 548 c-26 -205 -50 -381 -53 -390 -4 -16 6 -18 101 -18 58 0 106
1 107 3 0 1 8 58 17 127 13 99 20 125 33 128 13 2 23 -23 49 -128 l32 -130
109 0 c64 0 109 4 109 10 0 5 -17 68 -37 141 l-36 131 45 38 c64 55 91 121 95
235 5 114 -15 157 -92 195 -47 24 -61 25 -240 28 l-191 3 -48 -373z m388 342
c72 -9 105 -26 140 -74 31 -41 29 -170 -3 -243 -22 -49 -80 -114 -112 -125
-10 -3 -5 -33 24 -136 20 -73 37 -137 37 -142 0 -6 -36 -10 -85 -10 l-84 0 -9
33 c-5 17 -20 76 -32 130 l-24 97 -36 0 -37 0 -12 -97 c-7 -54 -15 -113 -18
-130 l-5 -33 -80 0 -80 0 5 33 c3 17 25 178 47 357 23 179 43 331 45 338 5 15
211 16 319 2z"/>
<path d="M1086 733 c-3 -16 -8 -48 -11 -73 -3 -25 -8 -57 -11 -72 l-6 -28 72
0 c66 0 74 2 101 29 24 25 29 37 29 80 0 73 -21 91 -104 91 -62 0 -65 -1 -70
-27z m132 -9 c39 -27 24 -111 -25 -133 -13 -6 -42 -11 -65 -11 l-40 0 6 48
c17 118 14 112 60 112 23 0 52 -7 64 -16z"/>
<path d="M1757 912 c-5 -6 -147 -391 -253 -679 l-34 -93 113 0 112 0 23 75 22
75 69 0 68 0 7 -46 c3 -26 6 -60 6 -75 l0 -29 110 0 c107 0 110 1 110 22 0 22
-65 634 -76 716 l-5 42 -134 0 c-74 0 -136 -3 -138 -8z m262 -119 c58 -530 67
-625 56 -630 -7 -2 -45 -3 -86 -1 l-74 3 -3 45 c-1 25 -5 60 -8 78 l-5 33 -86
-3 -86 -3 -26 -75 -26 -75 -82 -3 c-54 -2 -83 1 -83 8 0 10 223 621 254 694
l15 36 114 0 114 0 12 -107z"/>
<path d="M1813 575 l-41 -125 59 0 59 0 -1 58 c-2 96 -13 185 -24 189 -6 2
-29 -53 -52 -122z m50 -32 l5 -63 -29 0 c-16 0 -29 4 -29 9 0 7 15 54 35 110
8 22 12 10 18 -56z"/>
<path d="M2280 903 c0 -10 18 -183 40 -386 22 -202 40 -370 40 -372 0 -3 62
-5 138 -5 l137 0 140 381 c77 210 142 385 143 390 2 6 -43 9 -109 7 l-112 -3
-80 -238 c-43 -131 -80 -237 -82 -235 -1 2 -8 80 -14 173 -6 94 -14 200 -17
238 l-7 67 -108 0 c-97 0 -109 -2 -109 -17z m195 -15 c2 -7 11 -125 20 -263
15 -219 24 -281 38 -264 2 2 44 123 93 269 l89 265 83 3 c61 2 82 0 82 -10 0
-7 -59 -174 -132 -370 l-132 -358 -113 0 c-82 0 -115 3 -118 13 -6 17 -75 655
-75 695 l0 32 80 0 c56 0 82 -4 85 -12z"/>
<path d="M2976 548 c-26 -205 -50 -381 -53 -391 -4 -16 11 -17 249 -15 l253 3
10 87 11 88 -143 0 -143 0 0 29 c0 16 3 42 6 59 l6 31 122 3 121 3 6 45 c3 25
9 66 12 93 l7 47 -120 0 c-134 0 -130 -3 -114 79 l7 31 143 0 c163 0 149 -10
160 108 l7 72 -250 0 -249 0 -48 -372z m518 327 c-1 -11 -5 -41 -9 -67 l-6
-48 -144 0 c-163 0 -147 10 -160 -102 l-7 -58 121 0 122 0 -6 -52 c-4 -29 -8
-59 -10 -65 -3 -10 -37 -13 -124 -13 l-119 0 -6 -32 c-3 -18 -8 -57 -12 -85
l-7 -53 147 0 147 0 -6 -35 c-3 -19 -7 -51 -10 -70 l-6 -35 -226 0 -225 0 5
33 c3 17 25 178 47 357 23 179 43 331 46 338 3 10 53 12 226 10 216 -3 223 -4
222 -23z"/>
</g>
</svg>
